<svg xmlns="http://www.w3.org/2000/svg" xmlns:xlink="http://www.w3.org/1999/xlink" width="250" zoomAndPan="magnify" viewBox="0 0 187.5 187.499992" height="250" preserveAspectRatio="xMidYMid meet" version="1.0"><defs><g/></defs><g fill="#ff5400" fill-opacity="1"><g transform="translate(-7.029781, 136.680139)"><g><path d="M 23.984375 -65.59375 C 23.984375 -62.394531 24.898438 -59.816406 26.734375 -57.859375 C 28.578125 -55.898438 30.859375 -54.179688 33.578125 -52.703125 C 36.296875 -51.222656 39.253906 -49.78125 42.453125 -48.375 C 45.648438 -46.976562 48.625 -45.28125 51.375 -43.28125 C 54.132812 -41.289062 56.429688 -38.796875 58.265625 -35.796875 C 60.109375 -32.796875 61.03125 -28.9375 61.03125 -24.21875 C 61.03125 -21.425781 60.53125 -18.707031 59.53125 -16.0625 C 58.539062 -13.425781 57.101562 -11.03125 55.21875 -8.875 C 53.34375 -6.71875 51.082031 -4.859375 48.4375 -3.296875 C 45.800781 -1.734375 42.765625 -0.675781 39.328125 -0.125 L 39.328125 11.625 L 29.625 11.625 L 29.625 0.359375 C 26.1875 0.203125 22.628906 -0.351562 18.953125 -1.3125 C 15.273438 -2.28125 12.195312 -3.800781 9.71875 -5.875 L 12.234375 -16.1875 C 13.347656 -15.550781 14.765625 -14.929688 16.484375 -14.328125 C 18.203125 -13.734375 19.976562 -13.175781 21.8125 -12.65625 C 23.65625 -12.132812 25.492188 -11.710938 27.328125 -11.390625 C 29.171875 -11.066406 30.894531 -10.90625 32.5 -10.90625 C 37.375 -10.90625 41.109375 -12.046875 43.703125 -14.328125 C 46.304688 -16.609375 47.609375 -19.988281 47.609375 -24.46875 C 47.609375 -27.1875 46.6875 -29.503906 44.84375 -31.421875 C 43.007812 -33.335938 40.710938 -35.070312 37.953125 -36.625 C 35.191406 -38.1875 32.210938 -39.75 29.015625 -41.3125 C 25.816406 -42.875 22.816406 -44.710938 20.015625 -46.828125 C 17.222656 -48.941406 14.90625 -51.4375 13.0625 -54.3125 C 11.226562 -57.195312 10.3125 -60.796875 10.3125 -65.109375 C 10.3125 -68.390625 10.847656 -71.390625 11.921875 -74.109375 C 13.003906 -76.828125 14.460938 -79.203125 16.296875 -81.234375 C 18.140625 -83.273438 20.320312 -84.957031 22.84375 -86.28125 C 25.363281 -87.601562 28.0625 -88.539062 30.9375 -89.09375 L 30.9375 -99.40625 L 40.65625 -99.40625 L 40.65625 -89.703125 C 43.769531 -89.535156 46.84375 -89.113281 49.875 -88.4375 C 52.914062 -87.757812 55.398438 -86.78125 57.328125 -85.5 C 56.847656 -84.457031 56.285156 -83.316406 55.640625 -82.078125 C 55.003906 -80.835938 54.40625 -79.675781 53.84375 -78.59375 C 53.28125 -77.519531 52.800781 -76.625 52.40625 -75.90625 C 52.007812 -75.1875 51.769531 -74.785156 51.6875 -74.703125 C 51.207031 -74.941406 50.664062 -75.257812 50.0625 -75.65625 C 49.46875 -76.0625 48.609375 -76.460938 47.484375 -76.859375 C 46.367188 -77.265625 44.890625 -77.546875 43.046875 -77.703125 C 41.210938 -77.867188 38.851562 -77.832031 35.96875 -77.59375 C 34.375 -77.425781 32.859375 -76.960938 31.421875 -76.203125 C 29.984375 -75.441406 28.703125 -74.503906 27.578125 -73.390625 C 26.460938 -72.273438 25.582031 -71.015625 24.9375 -69.609375 C 24.300781 -68.210938 23.984375 -66.875 23.984375 -65.59375 Z M 23.984375 -65.59375 "/></g></g></g><g fill="#ff5400" fill-opacity="1"><g transform="translate(57.963465, 136.680139)"><g><path d="M 40.53125 0 L 25.90625 0 L 25.90625 -67.75 L 13.796875 -55.640625 L 3.484375 -65.953125 L 25.90625 -88.375 L 40.53125 -88.375 Z M 40.53125 0 "/></g></g></g><g fill="#ff5400" fill-opacity="1"><g transform="translate(108.567063, 136.680139)"><g><path d="M 43.046875 -77.953125 C 40.085938 -77.953125 37.410156 -77.390625 35.015625 -76.265625 C 32.617188 -75.148438 30.578125 -73.253906 28.890625 -70.578125 C 27.210938 -67.898438 25.914062 -64.441406 25 -60.203125 C 24.082031 -55.960938 23.582031 -50.765625 23.5 -44.609375 C 23.582031 -39.734375 23.898438 -35.414062 24.453125 -31.65625 C 25.015625 -27.894531 25.859375 -24.695312 26.984375 -22.0625 L 20.390625 -8.03125 C 16.710938 -11.789062 13.875 -16.6875 11.875 -22.71875 C 9.875 -28.757812 8.875 -36.054688 8.875 -44.609375 C 8.875 -52.046875 9.648438 -58.582031 11.203125 -64.21875 C 12.765625 -69.851562 15.003906 -74.546875 17.921875 -78.296875 C 20.847656 -82.054688 24.40625 -84.914062 28.59375 -86.875 C 32.789062 -88.832031 37.488281 -89.8125 42.6875 -89.8125 C 48.207031 -89.8125 53.046875 -88.773438 57.203125 -86.703125 L 51.921875 -75.421875 C 49.285156 -77.109375 46.328125 -77.953125 43.046875 -77.953125 Z M 64.640625 -81.546875 C 68.554688 -77.867188 71.53125 -72.953125 73.5625 -66.796875 C 75.601562 -60.640625 76.625 -53.242188 76.625 -44.609375 C 76.625 -37.171875 75.84375 -30.613281 74.28125 -24.9375 C 72.726562 -19.257812 70.472656 -14.539062 67.515625 -10.78125 C 64.554688 -7.03125 61 -4.195312 56.84375 -2.28125 C 52.6875 -0.363281 47.96875 0.59375 42.6875 0.59375 C 37.007812 0.59375 31.972656 -0.523438 27.578125 -2.765625 L 32.984375 -14.15625 C 35.453125 -12.15625 38.566406 -11.15625 42.328125 -11.15625 C 45.285156 -11.15625 47.984375 -11.734375 50.421875 -12.890625 C 52.859375 -14.046875 54.914062 -15.941406 56.59375 -18.578125 C 58.28125 -21.222656 59.582031 -24.679688 60.5 -28.953125 C 61.414062 -33.234375 61.914062 -38.453125 62 -44.609375 C 61.914062 -49.648438 61.550781 -54.046875 60.90625 -57.796875 C 60.269531 -61.554688 59.351562 -64.753906 58.15625 -67.390625 C 58.082031 -67.472656 58.046875 -67.554688 58.046875 -67.640625 Z M 64.640625 -81.546875 "/></g></g></g></svg>