<svg xmlns="http://www.w3.org/2000/svg" xmlns:xlink="http://www.w3.org/1999/xlink" width="250" zoomAndPan="magnify" viewBox="0 0 187.5 187.499992" height="250" preserveAspectRatio="xMidYMid meet" version="1.0"><defs><g/></defs><g fill="#ff5400" fill-opacity="1"><g transform="translate(-5.396439, 123.308856)"><g><path d="M 16.5625 -45.28125 C 16.5625 -43.082031 17.195312 -41.304688 18.46875 -39.953125 C 19.738281 -38.597656 21.3125 -37.410156 23.1875 -36.390625 C 25.0625 -35.367188 27.101562 -34.375 29.3125 -33.40625 C 31.519531 -32.4375 33.570312 -31.257812 35.46875 -29.875 C 37.375 -28.5 38.960938 -26.773438 40.234375 -24.703125 C 41.503906 -22.640625 42.140625 -19.976562 42.140625 -16.71875 C 42.140625 -14.789062 41.796875 -12.914062 41.109375 -11.09375 C 40.421875 -9.269531 39.425781 -7.613281 38.125 -6.125 C 36.832031 -4.632812 35.273438 -3.347656 33.453125 -2.265625 C 31.628906 -1.191406 29.53125 -0.460938 27.15625 -0.078125 L 27.15625 8.03125 L 20.453125 8.03125 L 20.453125 0.25 C 18.078125 0.132812 15.617188 -0.25 13.078125 -0.90625 C 10.535156 -1.570312 8.410156 -2.625 6.703125 -4.0625 L 8.4375 -11.171875 C 9.21875 -10.734375 10.203125 -10.304688 11.390625 -9.890625 C 12.578125 -9.472656 13.800781 -9.085938 15.0625 -8.734375 C 16.332031 -8.378906 17.601562 -8.085938 18.875 -7.859375 C 20.144531 -7.640625 21.332031 -7.53125 22.4375 -7.53125 C 25.800781 -7.53125 28.378906 -8.316406 30.171875 -9.890625 C 31.972656 -11.460938 32.875 -13.796875 32.875 -16.890625 C 32.875 -18.765625 32.238281 -20.363281 30.96875 -21.6875 C 29.695312 -23.007812 28.109375 -24.207031 26.203125 -25.28125 C 24.296875 -26.363281 22.238281 -27.441406 20.03125 -28.515625 C 17.820312 -29.597656 15.75 -30.867188 13.8125 -32.328125 C 11.882812 -33.796875 10.285156 -35.519531 9.015625 -37.5 C 7.753906 -39.488281 7.125 -41.972656 7.125 -44.953125 C 7.125 -47.222656 7.492188 -49.296875 8.234375 -51.171875 C 8.984375 -53.046875 9.992188 -54.6875 11.265625 -56.09375 C 12.535156 -57.5 14.035156 -58.65625 15.765625 -59.5625 C 17.503906 -60.476562 19.367188 -61.128906 21.359375 -61.515625 L 21.359375 -68.640625 L 28.0625 -68.640625 L 28.0625 -61.9375 C 30.21875 -61.820312 32.34375 -61.53125 34.4375 -61.0625 C 36.539062 -60.59375 38.253906 -59.914062 39.578125 -59.03125 C 39.242188 -58.3125 38.851562 -57.523438 38.40625 -56.671875 C 37.96875 -55.816406 37.554688 -55.015625 37.171875 -54.265625 C 36.785156 -53.523438 36.453125 -52.90625 36.171875 -52.40625 C 35.898438 -51.90625 35.738281 -51.628906 35.6875 -51.578125 C 35.351562 -51.742188 34.976562 -51.960938 34.5625 -52.234375 C 34.15625 -52.515625 33.5625 -52.789062 32.78125 -53.0625 C 32.007812 -53.34375 30.988281 -53.535156 29.71875 -53.640625 C 28.445312 -53.753906 26.820312 -53.726562 24.84375 -53.5625 C 23.738281 -53.457031 22.6875 -53.140625 21.6875 -52.609375 C 20.695312 -52.085938 19.816406 -51.441406 19.046875 -50.671875 C 18.273438 -49.898438 17.664062 -49.03125 17.21875 -48.0625 C 16.78125 -47.09375 16.5625 -46.164062 16.5625 -45.28125 Z M 16.5625 -45.28125 "/></g></g></g><g fill="#ff5400" fill-opacity="1"><g transform="translate(39.470501, 123.308856)"><g><path d="M 27.984375 0 L 17.890625 0 L 17.890625 -46.78125 L 9.515625 -38.421875 L 2.40625 -45.53125 L 17.890625 -61.015625 L 27.984375 -61.015625 Z M 27.984375 0 "/></g></g></g><g fill="#ff5400" fill-opacity="1"><g transform="translate(74.403801, 123.308856)"><g><path d="M 29.71875 -53.8125 C 27.675781 -53.8125 25.828125 -53.425781 24.171875 -52.65625 C 22.515625 -51.882812 21.109375 -50.570312 19.953125 -48.71875 C 18.796875 -46.875 17.898438 -44.488281 17.265625 -41.5625 C 16.628906 -38.632812 16.285156 -35.046875 16.234375 -30.796875 C 16.285156 -27.429688 16.503906 -24.453125 16.890625 -21.859375 C 17.273438 -19.265625 17.851562 -17.054688 18.625 -15.234375 L 14.078125 -5.546875 C 11.535156 -8.140625 9.570312 -11.519531 8.1875 -15.6875 C 6.8125 -19.851562 6.125 -24.890625 6.125 -30.796875 C 6.125 -35.929688 6.660156 -40.441406 7.734375 -44.328125 C 8.816406 -48.222656 10.363281 -51.46875 12.375 -54.0625 C 14.394531 -56.65625 16.851562 -58.628906 19.75 -59.984375 C 22.644531 -61.335938 25.882812 -62.015625 29.46875 -62.015625 C 33.28125 -62.015625 36.625 -61.296875 39.5 -59.859375 L 35.84375 -52.078125 C 34.03125 -53.234375 31.988281 -53.8125 29.71875 -53.8125 Z M 44.625 -56.296875 C 47.332031 -53.753906 49.390625 -50.359375 50.796875 -46.109375 C 52.203125 -41.859375 52.90625 -36.753906 52.90625 -30.796875 C 52.90625 -25.660156 52.363281 -21.132812 51.28125 -17.21875 C 50.207031 -13.300781 48.648438 -10.046875 46.609375 -7.453125 C 44.566406 -4.859375 42.109375 -2.898438 39.234375 -1.578125 C 36.367188 -0.253906 33.113281 0.40625 29.46875 0.40625 C 25.550781 0.40625 22.078125 -0.363281 19.046875 -1.90625 L 22.765625 -9.765625 C 24.472656 -8.390625 26.625 -7.703125 29.21875 -7.703125 C 31.269531 -7.703125 33.132812 -8.097656 34.8125 -8.890625 C 36.5 -9.691406 37.921875 -11.003906 39.078125 -12.828125 C 40.234375 -14.648438 41.128906 -17.035156 41.765625 -19.984375 C 42.398438 -22.941406 42.742188 -26.546875 42.796875 -30.796875 C 42.742188 -34.273438 42.492188 -37.3125 42.046875 -39.90625 C 41.609375 -42.5 40.976562 -44.707031 40.15625 -46.53125 C 40.101562 -46.582031 40.078125 -46.640625 40.078125 -46.703125 Z M 44.625 -56.296875 "/></g></g></g><g fill="#ff5400" fill-opacity="1"><g transform="translate(133.343396, 123.308856)"><g><path d="M 29.71875 -53.8125 C 27.675781 -53.8125 25.828125 -53.425781 24.171875 -52.65625 C 22.515625 -51.882812 21.109375 -50.570312 19.953125 -48.71875 C 18.796875 -46.875 17.898438 -44.488281 17.265625 -41.5625 C 16.628906 -38.632812 16.285156 -35.046875 16.234375 -30.796875 C 16.285156 -27.429688 16.503906 -24.453125 16.890625 -21.859375 C 17.273438 -19.265625 17.851562 -17.054688 18.625 -15.234375 L 14.078125 -5.546875 C 11.535156 -8.140625 9.570312 -11.519531 8.1875 -15.6875 C 6.8125 -19.851562 6.125 -24.890625 6.125 -30.796875 C 6.125 -35.929688 6.660156 -40.441406 7.734375 -44.328125 C 8.816406 -48.222656 10.363281 -51.46875 12.375 -54.0625 C 14.394531 -56.65625 16.851562 -58.628906 19.75 -59.984375 C 22.644531 -61.335938 25.882812 -62.015625 29.46875 -62.015625 C 33.28125 -62.015625 36.625 -61.296875 39.5 -59.859375 L 35.84375 -52.078125 C 34.03125 -53.234375 31.988281 -53.8125 29.71875 -53.8125 Z M 44.625 -56.296875 C 47.332031 -53.753906 49.390625 -50.359375 50.796875 -46.109375 C 52.203125 -41.859375 52.90625 -36.753906 52.90625 -30.796875 C 52.90625 -25.660156 52.363281 -21.132812 51.28125 -17.21875 C 50.207031 -13.300781 48.648438 -10.046875 46.609375 -7.453125 C 44.566406 -4.859375 42.109375 -2.898438 39.234375 -1.578125 C 36.367188 -0.253906 33.113281 0.40625 29.46875 0.40625 C 25.550781 0.40625 22.078125 -0.363281 19.046875 -1.90625 L 22.765625 -9.765625 C 24.472656 -8.390625 26.625 -7.703125 29.21875 -7.703125 C 31.269531 -7.703125 33.132812 -8.097656 34.8125 -8.890625 C 36.5 -9.691406 37.921875 -11.003906 39.078125 -12.828125 C 40.234375 -14.648438 41.128906 -17.035156 41.765625 -19.984375 C 42.398438 -22.941406 42.742188 -26.546875 42.796875 -30.796875 C 42.742188 -34.273438 42.492188 -37.3125 42.046875 -39.90625 C 41.609375 -42.5 40.976562 -44.707031 40.15625 -46.53125 C 40.101562 -46.582031 40.078125 -46.640625 40.078125 -46.703125 Z M 44.625 -56.296875 "/></g></g></g></svg>