<svg xmlns="http://www.w3.org/2000/svg" xmlns:xlink="http://www.w3.org/1999/xlink" width="250" zoomAndPan="magnify" viewBox="0 0 187.5 187.499992" height="250" preserveAspectRatio="xMidYMid meet" version="1.0"><defs><g/></defs><g fill="#ff5400" fill-opacity="1"><g transform="translate(-7.144464, 132.474664)"><g><path d="M 21.65625 -59.203125 C 21.65625 -56.316406 22.484375 -53.988281 24.140625 -52.21875 C 25.796875 -50.457031 27.847656 -48.910156 30.296875 -47.578125 C 32.753906 -46.242188 35.425781 -44.941406 38.3125 -43.671875 C 41.207031 -42.410156 43.898438 -40.878906 46.390625 -39.078125 C 48.878906 -37.273438 50.953125 -35.019531 52.609375 -32.3125 C 54.265625 -29.601562 55.09375 -26.117188 55.09375 -21.859375 C 55.09375 -19.335938 54.640625 -16.882812 53.734375 -14.5 C 52.835938 -12.125 51.539062 -9.960938 49.84375 -8.015625 C 48.144531 -6.066406 46.101562 -4.382812 43.71875 -2.96875 C 41.34375 -1.5625 38.601562 -0.609375 35.5 -0.109375 L 35.5 10.5 L 26.734375 10.5 L 26.734375 0.328125 C 23.628906 0.179688 20.414062 -0.320312 17.09375 -1.1875 C 13.78125 -2.050781 11.003906 -3.421875 8.765625 -5.296875 L 11.046875 -14.609375 C 12.054688 -14.035156 13.335938 -13.476562 14.890625 -12.9375 C 16.441406 -12.394531 18.046875 -11.890625 19.703125 -11.421875 C 21.359375 -10.953125 23.015625 -10.570312 24.671875 -10.28125 C 26.335938 -9.988281 27.890625 -9.84375 29.328125 -9.84375 C 33.734375 -9.84375 37.109375 -10.867188 39.453125 -12.921875 C 41.796875 -14.984375 42.96875 -18.035156 42.96875 -22.078125 C 42.96875 -24.535156 42.140625 -26.628906 40.484375 -28.359375 C 38.828125 -30.085938 36.753906 -31.65625 34.265625 -33.0625 C 31.773438 -34.476562 29.082031 -35.890625 26.1875 -37.296875 C 23.300781 -38.703125 20.59375 -40.359375 18.0625 -42.265625 C 15.539062 -44.179688 13.453125 -46.4375 11.796875 -49.03125 C 10.140625 -51.632812 9.3125 -54.882812 9.3125 -58.78125 C 9.3125 -61.738281 9.796875 -64.441406 10.765625 -66.890625 C 11.742188 -69.347656 13.0625 -71.492188 14.71875 -73.328125 C 16.382812 -75.171875 18.351562 -76.6875 20.625 -77.875 C 22.894531 -79.070312 25.328125 -79.921875 27.921875 -80.421875 L 27.921875 -89.734375 L 36.703125 -89.734375 L 36.703125 -80.96875 C 39.515625 -80.820312 42.289062 -80.441406 45.03125 -79.828125 C 47.769531 -79.210938 50.003906 -78.328125 51.734375 -77.171875 C 51.304688 -76.234375 50.800781 -75.207031 50.21875 -74.09375 C 49.644531 -72.976562 49.101562 -71.929688 48.59375 -70.953125 C 48.09375 -69.984375 47.660156 -69.171875 47.296875 -68.515625 C 46.941406 -67.867188 46.726562 -67.507812 46.65625 -67.4375 C 46.21875 -67.65625 45.726562 -67.941406 45.1875 -68.296875 C 44.644531 -68.660156 43.867188 -69.019531 42.859375 -69.375 C 41.847656 -69.738281 40.515625 -69.992188 38.859375 -70.140625 C 37.203125 -70.285156 35.070312 -70.25 32.46875 -70.03125 C 31.03125 -69.882812 29.660156 -69.46875 28.359375 -68.78125 C 27.054688 -68.101562 25.898438 -67.257812 24.890625 -66.25 C 23.878906 -65.238281 23.085938 -64.097656 22.515625 -62.828125 C 21.941406 -61.566406 21.65625 -60.359375 21.65625 -59.203125 Z M 21.65625 -59.203125 "/></g></g></g><g fill="#ff5400" fill-opacity="1"><g transform="translate(51.518743, 132.474664)"><g><path d="M 33.015625 -49.578125 C 36.765625 -49.578125 40.132812 -48.910156 43.125 -47.578125 C 46.125 -46.242188 48.671875 -44.457031 50.765625 -42.21875 C 52.859375 -39.976562 54.445312 -37.453125 55.53125 -34.640625 C 56.613281 -31.828125 57.15625 -28.90625 57.15625 -25.875 C 57.15625 -19.957031 56.179688 -15.25 54.234375 -11.75 C 52.285156 -8.25 49.882812 -5.578125 47.03125 -3.734375 C 44.175781 -1.890625 41.195312 -0.710938 38.09375 -0.203125 C 35 0.296875 32.332031 0.546875 30.09375 0.546875 C 27.632812 0.546875 25.285156 0.347656 23.046875 -0.046875 C 20.816406 -0.453125 18.78125 -0.957031 16.9375 -1.5625 C 15.101562 -2.175781 13.5 -2.789062 12.125 -3.40625 C 10.75 -4.019531 9.703125 -4.507812 8.984375 -4.875 L 8.984375 -15.703125 C 9.992188 -15.046875 11.273438 -14.335938 12.828125 -13.578125 C 14.378906 -12.828125 16.019531 -12.109375 17.75 -11.421875 C 19.476562 -10.734375 21.300781 -10.171875 23.21875 -9.734375 C 25.132812 -9.304688 26.921875 -9.09375 28.578125 -9.09375 C 33.921875 -9.09375 38.109375 -10.460938 41.140625 -13.203125 C 44.171875 -15.941406 45.6875 -20.164062 45.6875 -25.875 C 45.6875 -29.988281 44.367188 -33.234375 41.734375 -35.609375 C 39.097656 -37.992188 35.648438 -39.1875 31.390625 -39.1875 C 30.015625 -39.1875 28.640625 -39.09375 27.265625 -38.90625 C 25.898438 -38.726562 24.601562 -38.460938 23.375 -38.109375 L 24.6875 -48.8125 C 26.125 -49.101562 27.65625 -49.300781 29.28125 -49.40625 C 30.90625 -49.519531 32.148438 -49.578125 33.015625 -49.578125 Z M 18.625 -35.28125 L 8.4375 -35.28125 C 8.4375 -35.863281 8.507812 -36.945312 8.65625 -38.53125 C 8.800781 -40.125 8.984375 -42.019531 9.203125 -44.21875 C 9.421875 -46.414062 9.671875 -48.8125 9.953125 -51.40625 C 10.242188 -54.007812 10.535156 -56.644531 10.828125 -59.3125 C 11.546875 -65.519531 12.375 -72.34375 13.3125 -79.78125 L 52.828125 -79.78125 L 52.828125 -69.171875 L 23.0625 -69.171875 C 22.332031 -63.828125 21.75 -59.675781 21.3125 -56.71875 C 20.882812 -53.757812 20.582031 -51.554688 20.40625 -50.109375 C 20.226562 -48.671875 20.117188 -47.789062 20.078125 -47.46875 C 20.046875 -47.144531 20.03125 -46.945312 20.03125 -46.875 L 19.15625 -39.625 Z M 18.625 -35.28125 "/></g></g></g><g fill="#ff5400" fill-opacity="1"><g transform="translate(117.000736, 132.474664)"><g><path d="M 38.859375 -70.359375 C 36.191406 -70.359375 33.773438 -69.851562 31.609375 -68.84375 C 29.441406 -67.832031 27.597656 -66.117188 26.078125 -63.703125 C 24.566406 -61.285156 23.394531 -58.164062 22.5625 -54.34375 C 21.738281 -50.519531 21.289062 -45.828125 21.21875 -40.265625 C 21.289062 -35.867188 21.578125 -31.972656 22.078125 -28.578125 C 22.585938 -25.179688 23.347656 -22.296875 24.359375 -19.921875 L 18.40625 -7.25 C 15.082031 -10.644531 12.519531 -15.066406 10.71875 -20.515625 C 8.914062 -25.960938 8.015625 -32.546875 8.015625 -40.265625 C 8.015625 -46.972656 8.71875 -52.867188 10.125 -57.953125 C 11.53125 -63.046875 13.550781 -67.285156 16.1875 -70.671875 C 18.820312 -74.066406 22.03125 -76.648438 25.8125 -78.421875 C 29.601562 -80.191406 33.84375 -81.078125 38.53125 -81.078125 C 43.507812 -81.078125 47.878906 -80.140625 51.640625 -78.265625 L 46.875 -68.09375 C 44.488281 -69.601562 41.816406 -70.359375 38.859375 -70.359375 Z M 58.34375 -73.609375 C 61.882812 -70.285156 64.570312 -65.84375 66.40625 -60.28125 C 68.25 -54.726562 69.171875 -48.054688 69.171875 -40.265625 C 69.171875 -33.554688 68.46875 -27.640625 67.0625 -22.515625 C 65.65625 -17.390625 63.613281 -13.128906 60.9375 -9.734375 C 58.269531 -6.347656 55.0625 -3.785156 51.3125 -2.046875 C 47.5625 -0.316406 43.300781 0.546875 38.53125 0.546875 C 33.40625 0.546875 28.859375 -0.460938 24.890625 -2.484375 L 29.765625 -12.765625 C 32.003906 -10.960938 34.816406 -10.0625 38.203125 -10.0625 C 40.878906 -10.0625 43.316406 -10.582031 45.515625 -11.625 C 47.710938 -12.675781 49.566406 -14.390625 51.078125 -16.765625 C 52.597656 -19.148438 53.773438 -22.273438 54.609375 -26.140625 C 55.441406 -30.003906 55.894531 -34.710938 55.96875 -40.265625 C 55.894531 -44.816406 55.566406 -48.785156 54.984375 -52.171875 C 54.410156 -55.566406 53.582031 -58.453125 52.5 -60.828125 C 52.425781 -60.898438 52.390625 -60.972656 52.390625 -61.046875 Z M 58.34375 -73.609375 "/></g></g></g></svg>